/* XPM */
static char *_551451685916[] = {
/* columns rows colors chars-per-pixel */
"64 64 2 1 ",
"  c #17A7CB",
". c None",
/* pixels */
"................................................................",
"................................................................",
"................................................................",
"................................................................",
"................................................................",
"................................................................",
".............   .  .  ......................  . .  .............",
".............         ....................         .............",
".............         ....................        ..............",
".............         ....................         .............",
".............       ......................         .............",
".............       ......................        ..............",
".............         ....................         .............",
".............         ....................         .............",
".............         ....................         .............",
".............         .....................        .............",
".............         ....................         .............",
".............         ....................         .............",
".............         ....................         .............",
".............         ....................         .............",
".............         ....................         .............",
".............         ....................         .............",
".............         ....................         .............",
".............         ....................         .............",
"..............        ....................         .............",
"..............        ....................         .............",
"..............        ....................         .............",
".............         ....................         .............",
".............         ....................        ..............",
"..............        ....................       . .............",
"..............        ....................      ................",
"..............        ....................      .. .............",
".............         ....................         .............",
".............         ....................         .............",
".............         ....................         .............",
".............         ....................         .............",
".............         ....................         .............",
".............         ....................         .............",
".............         ....................         .............",
".............  ..     ....................         .............",
".............  ..     ....................         .............",
".............         ....................         .............",
"..............        ....................      .. .............",
".............         ....................     ... .............",
".............         ....................         .............",
".............         ....................         .............",
".............          ..................          .............",
".............           ................           .............",
".............            ....  ... ....            .............",
".............                  .                   .............",
"..............      .        .         ..         ..............",
"..............      ..          ..     .          ..............",
"...............              ...  .              ...............",
"...............                    .            ................",
".................        ...  ..    .          .................",
"....................    .   .        ..     ....................",
"..........................   .      ............................",
"...........................  ..    .............................",
"............................  .   ..............................",
"............................. ..................................",
"................................................................",
"................................................................",
"................................................................",
"................................................................"
};
