/* XPM */
static char *_551451655912[] = {
/* columns rows colors chars-per-pixel */
"16 16 2 1 ",
"  c #17A7CB",
". c None",
/* pixels */
"................",
".... ...... ....",
"...  .....   ...",
"...  ......  ...",
"...   .....  ...",
"...   ....   ...",
"...   ....   ...",
"...   ....  ....",
"...   ....   ...",
"...   ....   ...",
"...   ....   ...",
"...   ....   ...",
"...          ...",
"....        ....",
"....... ........",
"................"
};
