/* XPM */
static char *_551451671839[] = {
/* columns rows colors chars-per-pixel */
"32 32 2 1 ",
"  c #17A7CB",
". c None",
/* pixels */
"................................",
"................................",
"................................",
".......    ..........    .......",
"......     ..........     ......",
"......    ...........    .......",
"......     ..........     ......",
"......     ..........     ......",
"......     ..........     ......",
"......     ..........     ......",
"......     ..........     ......",
"......     ..........     ......",
".......    ..........     ......",
".......    ..........     ......",
"......     ..........    .......",
".......    ..........   ........",
"......     ..........     ......",
"......     ..........     ......",
"......     ..........     ......",
"......     ..........     ......",
"......     ..........    .......",
"......     ..........   ........",
"......     ..........     ......",
"......      ........      ......",
"......       . .  .       ......",
".......   .              .......",
"........         .      ........",
".........         .    .........",
".............     ..............",
".............. .................",
"................................",
"................................"
};
