/* XPM */
static char *_551451695260[] = {
/* columns rows colors chars-per-pixel */
"128 128 2 1 ",
"  c #17A7CB",
". c None",
/* pixels */
"................................................................................................................................",
"................................................................................................................................",
"................................................................................................................................",
"................................................................................................................................",
"................................................................................................................................",
"................................................................................................................................",
"................................................................................................................................",
"................................................................................................................................",
"................................................................................................................................",
"................................................................................................................................",
"................................................................................................................................",
"................................................................................................................................",
"................................................................................................................................",
"..........................       .     .    ........................................ ...    .   .     ..........................",
"..........................             .    ........................................                  ..........................",
"...........................            .    ........................................                  ..........................",
"..........................                  ........................................  .               ..........................",
"..........................                  ........................................  .              ...........................",
"..........................              .   ........................................  .               ..........................",
"..........................                  ........................................  .               ..........................",
"...........................              ...........................................  .               ..........................",
"..........................               ...........................................  .              ...........................",
"..........................     ....     ...  .......................................  .              ...........................",
"...........................              .. ........................................                 ...........................",
"..........................                   .......................................                 ...........................",
"..........................                   ....................................... .                ..........................",
"..........................                 . ....................................... .                ..........................",
"..........................            .    ........................................                  ...........................",
"..........................           .      .........................................          ....   ..........................",
"..........................                  .........................................     ....        ..........................",
"..........................          .       ..........................................                ..........................",
"..........................                  ..........................................                ..........................",
"..........................                  .........................................                 ..........................",
"..........................        .         .......................................  .                ..........................",
"..........................                  ........................................                  ..........................",
"..........................       .          ........................................  .               ..........................",
"..........................                  ........................................   .              ..........................",
"..........................      .           ........................................                  ..........................",
"..........................                  ........................................    .             ..........................",
"..........................     .            ........................................                  ..........................",
"..........................                  ........................................     .            ..........................",
"..........................    .             ........................................                  ..........................",
"..........................                  ........................................      .           ..........................",
"..........................   .              ........................................       .          ..........................",
"..........................                  ........................................       .          ..........................",
"..........................  .               ........................................        .         ..........................",
"..........................                  ........................................        .         ..........................",
"..........................                  ........................................         .        ..........................",
"...........................                 ........................................         .        ..........................",
"...........................                 ........................................          .       ..........................",
"............................                ........................................          .       ..........................",
"............................                ........................................                  ..........................",
".............................               ........................................           .      ..........................",
"...........................    ...          ........................................                  ..........................",
"..........................         ...      ........................................            .     ..........................",
"..........................              ... ........................................                 ...........................",
"...........................                 ........................................                 ...........................",
"...........................                  .......................................             .   ...........................",
"...........................                 ........................................                . ..........................",
"...........................                 ........................................              ..  ..........................",
"...........................                 ..............................................       ...............................",
"...........................                 ........................................             ...............................",
"............................                ........................................             .... ..........................",
"..........................                  ........................................            . ..  ..........................",
"..........................                  ........................................          ..      ..........................",
"..........................                  ........................................         .        ..........................",
"..........................  .               ........................................       ..         ..........................",
"..........................  .               ........................................      .           ..........................",
"..........................                  ........................................    ..            ..........................",
"..........................                  ........................................   .              ..........................",
"..........................   .             ........................................  ..               ..........................",
"..........................   .            . .........................................                 ..........................",
"..........................               .  ........................................                  ..........................",
"..........................              .   ........................................                  ..........................",
"..........................    .       .     ........................................                  ..........................",
"..........................           .      ........................................                  ..........................",
"..........................          .       ........................................              .   ..........................",
"..........................     .   .        ........................................              .   ..........................",
"..........................     ....         ........................................              .   ..........................",
"...........................   ....          ........................................              .   ..........................",
"...........................   ..........    ........................................                 ...........................",
"..........................    ....          ........................................                 ...........................",
"..........................   .   .          ........................................                  ..........................",
"..........................  .    .          ........................................                  ..........................",
"............................                .........................................           ...  ...........................",
"...........................                 ........................................   ....... .....  ..........................",
"..........................        .         ........................................           ....   ..........................",
"..........................                  ........................................           ... .............................",
"..........................                  ........................................          .      ...........................",
"..........................         .        .......................................          .    .   ..........................",
"..........................                   ......................................         .     .   ..........................",
"..........................          .        ......................................        .          ..........................",
"..........................                   .....................................                    ..........................",
"..........................                    ...................................       .             ..........................",
"..........................           .         .................................       .           .  ..........................",
"..........................                     . ..............................       .            .  ..........................",
"..........................            .       .   ............................       .             .  ..........................",
"..........................                   .      ......    ....    .......                      .  ..........................",
"...........................                 .         ..      ...       ..   .    .                . ...........................",
"...........................                .                ...               ...                    ...........................",
"...........................             ...                ..                 ...                    ...........................",
"............................           ....               .                  .....                   ...........................",
"............................            ....             ..      ...          ..   ..               ............................",
"............................            ...  .           ..     .....                 .             ............................",
".............................           .       .         .   ...  ...                  ..         .............................",
"..............................                     .      .....     ...                    .      ..............................",
"..............................                        .              ...                     .   ...............................",
"...............................                                  .    ...                     . ................................",
".................................                  ....     ....       ...                    ..................................",
"...................................            .  ..  ..     ...        ...                  ...................................",
".....................................  .         ..    ..    ...         ....              .....................................",
"............................................    ...     ..        .       ......    ............................................",
"...................................................      .. .   .         ......................................................",
".....................................................    ...         . .........................................................",
".....................................................      ..          .........................................................",
".......................................................    ...         .........................................................",
".......................................................      .       ...........................................................",
".........................................................    ..   . ............................................................",
".........................................................    ..   ..............................................................",
"..........................................................  ....................................................................",
"................................................................................................................................",
"................................................................................................................................",
"................................................................................................................................",
"................................................................................................................................",
"................................................................................................................................",
"................................................................................................................................",
"................................................................................................................................",
"................................................................................................................................"
};
